<svg id="Layer_1" data-name="Layer 1" xmlns="http://www.w3.org/2000/svg" viewBox="0 0 560.15 1000"><defs><style>.cls-1{fill:#fff;}.cls-2{fill:#333;}</style></defs><title>bulb_on</title><g id="filament"><path class="cls-1" d="M297.24,417c0,170.67,15.78,315.66,37.76,368.75C319.12,700.54,308.88,567.11,308.88,417S297.24,246.31,297.24,417Z"/><path class="cls-1" d="M262.9,417c0,170.67-15.78,315.66-37.76,368.75C241,700.54,251.27,567.11,251.27,417S262.9,246.31,262.9,417Z"/></g><g id="glassBulb"><path class="cls-1" d="M280.07,1000C125.64,1000,0,874.37,0,719.94a279.55,279.55,0,0,1,70.39-185.6c26.35-29.73,54.72-79.15,54.72-117.37V242c0-85.45,69.51-155,155-155s155,69.51,155,155V417c0,38.23,28.37,87.65,54.73,117.37a279.55,279.55,0,0,1,70.39,185.6C560.15,874.37,434.51,1000,280.07,1000Z"/></g><g id="reflection"><path class="cls-1" d="M113.37,728.51A38,38,0,0,1,76.7,680.74a210.41,210.41,0,0,1,62.85-102.4,37.95,37.95,0,1,1,50.69,56.48A134.72,134.72,0,0,0,150,700.37,38,38,0,0,1,113.37,728.51Z"/><path class="cls-1" d="M395.26,901.51a37.94,37.94,0,0,1-25.36-66.18,134.8,134.8,0,0,0,40.25-65.56,37.94,37.94,0,1,1,73.3,19.64A210.46,210.46,0,0,1,420.6,891.8,37.8,37.8,0,0,1,395.26,901.51Z"/></g><path id="cap" class="cls-2" d="M280.07,0C176.27,0,92.12,84.15,92.12,188V417H468V188C468,84.15,383.88,0,280.07,0Z"/><path id="capReflectionRight" d="M280.07,0C350,0,422.49,84.15,422.49,188V417H468V188C468,84.15,383.88,0,280.07,0Z"/><path id="capReflectionLeft" class="cls-1" d="M280.07,0c-35,0-71.21,84.15-71.21,188V417H186.1V188C186.1,84.15,228.17,0,280.07,0Z"/></svg>