<svg xmlns="http://www.w3.org/2000/svg" xmlns:xlink="http://www.w3.org/1999/xlink" viewBox="0 0 194.26 194.23"><defs><style>.cls-1{isolation:isolate;}.cls-2{fill:url(#linear-gradient);}.cls-3{fill:url(#linear-gradient-2);}.cls-4{opacity:0.15;fill:url(#linear-gradient-3);}.cls-4,.cls-8{mix-blend-mode:screen;}.cls-5{opacity:0.6;mix-blend-mode:multiply;fill:url(#linear-gradient-4);}.cls-6{fill:#0e0e0e;opacity:0.5;}.cls-7{fill:url(#radial-gradient);}.cls-8{opacity:0.3;}.cls-9{fill:url(#radial-gradient-2);}.cls-10{fill:url(#radial-gradient-3);}.cls-11{fill:url(#radial-gradient-4);}.cls-12{fill:url(#radial-gradient-5);}.cls-13{fill:url(#radial-gradient-6);}.cls-14{fill:url(#radial-gradient-7);}.cls-15{fill:url(#radial-gradient-8);}.cls-16{fill:url(#radial-gradient-9);}.cls-17{fill:url(#radial-gradient-10);}.cls-18{fill:url(#radial-gradient-11);}.cls-19{fill:url(#radial-gradient-12);}.cls-20{fill:url(#radial-gradient-13);}.cls-21{fill:url(#radial-gradient-14);}.cls-22{fill:url(#radial-gradient-15);}.cls-23{fill:url(#radial-gradient-16);}.cls-24{fill:url(#radial-gradient-17);}.cls-25{fill:url(#radial-gradient-18);}.cls-26{fill:url(#radial-gradient-19);}.cls-27{fill:url(#radial-gradient-20);}.cls-28{fill:url(#radial-gradient-21);}.cls-29{fill:url(#radial-gradient-22);}.cls-30{fill:url(#radial-gradient-23);}.cls-31{fill:url(#radial-gradient-24);}.cls-32{fill:url(#radial-gradient-25);}.cls-33{fill:url(#radial-gradient-26);}.cls-34{fill:url(#radial-gradient-27);}.cls-35{fill:url(#radial-gradient-28);}.cls-36{fill:url(#radial-gradient-29);}.cls-37{fill:url(#radial-gradient-30);}.cls-38{fill:url(#radial-gradient-31);}.cls-39{fill:url(#radial-gradient-32);}.cls-40{fill:url(#radial-gradient-33);}.cls-41{fill:url(#radial-gradient-34);}.cls-42{fill:url(#radial-gradient-35);}.cls-43{fill:url(#radial-gradient-36);}.cls-44{fill:url(#radial-gradient-37);}.cls-45{fill:url(#radial-gradient-38);}.cls-46{fill:url(#radial-gradient-39);}.cls-47{fill:url(#radial-gradient-40);}.cls-48{fill:url(#radial-gradient-41);}.cls-49{fill:url(#radial-gradient-42);}.cls-50{fill:url(#radial-gradient-43);}.cls-51{fill:url(#radial-gradient-44);}.cls-52{fill:url(#radial-gradient-45);}.cls-53{fill:url(#radial-gradient-46);}.cls-54{fill:url(#radial-gradient-47);}.cls-55{fill:url(#radial-gradient-48);}.cls-56{fill:url(#radial-gradient-49);}.cls-57{fill:url(#radial-gradient-50);}.cls-58{fill:url(#radial-gradient-51);}.cls-59{fill:url(#radial-gradient-52);}.cls-60{fill:url(#radial-gradient-53);}.cls-61{fill:url(#radial-gradient-54);}.cls-62{fill:url(#radial-gradient-55);}.cls-63{fill:url(#radial-gradient-56);}.cls-64{fill:url(#radial-gradient-57);}.cls-65{fill:url(#radial-gradient-58);}.cls-66{fill:url(#radial-gradient-59);}.cls-67{fill:url(#radial-gradient-60);}.cls-68{fill:url(#radial-gradient-61);}.cls-69{fill:url(#radial-gradient-62);}.cls-70{fill:url(#radial-gradient-63);}.cls-71{fill:url(#radial-gradient-64);}.cls-72{fill:url(#radial-gradient-65);}.cls-73{fill:url(#radial-gradient-66);}.cls-74{fill:url(#radial-gradient-67);}.cls-75{fill:url(#radial-gradient-68);}.cls-76{fill:url(#radial-gradient-69);}.cls-77{fill:url(#radial-gradient-70);}.cls-78{fill:url(#radial-gradient-71);}.cls-79{fill:url(#radial-gradient-72);}.cls-80{fill:url(#radial-gradient-73);}.cls-81{fill:url(#radial-gradient-74);}.cls-82{fill:url(#radial-gradient-75);}.cls-83{fill:url(#radial-gradient-76);}.cls-84{fill:url(#radial-gradient-77);}.cls-85{fill:url(#radial-gradient-78);}.cls-86{fill:url(#radial-gradient-79);}.cls-87{fill:url(#radial-gradient-80);}.cls-88{fill:url(#radial-gradient-81);}.cls-89{fill:url(#radial-gradient-82);}.cls-90{fill:url(#radial-gradient-83);}.cls-91{fill:url(#radial-gradient-84);}.cls-92{fill:url(#radial-gradient-85);}.cls-93{fill:url(#radial-gradient-86);}.cls-94{fill:url(#radial-gradient-87);}.cls-95{fill:url(#radial-gradient-88);}.cls-96{fill:url(#radial-gradient-89);}.cls-97{fill:url(#radial-gradient-90);}.cls-98{fill:url(#radial-gradient-91);}.cls-99{fill:url(#radial-gradient-92);}.cls-100{fill:url(#radial-gradient-93);}.cls-101{fill:url(#radial-gradient-94);}.cls-102{fill:url(#radial-gradient-95);}.cls-103{fill:url(#radial-gradient-96);}.cls-104{fill:url(#radial-gradient-97);}.cls-105{fill:url(#radial-gradient-98);}.cls-106{fill:url(#radial-gradient-99);}.cls-107{fill:url(#radial-gradient-100);}.cls-108{fill:url(#radial-gradient-101);}.cls-109{fill:url(#radial-gradient-102);}.cls-110{fill:url(#radial-gradient-103);}.cls-111{fill:url(#radial-gradient-104);}.cls-112{fill:url(#radial-gradient-105);}.cls-113{fill:url(#radial-gradient-106);}.cls-114{fill:url(#radial-gradient-107);}.cls-115{fill:url(#radial-gradient-108);}.cls-116{fill:url(#radial-gradient-109);}.cls-117{fill:url(#radial-gradient-110);}.cls-118{fill:url(#radial-gradient-111);}.cls-119{fill:url(#radial-gradient-112);}.cls-120{fill:url(#radial-gradient-113);}.cls-121{fill:url(#radial-gradient-114);}.cls-122{fill:url(#radial-gradient-115);}.cls-123{fill:url(#radial-gradient-116);}.cls-124{fill:url(#radial-gradient-117);}.cls-125{fill:url(#radial-gradient-118);}.cls-126{fill:url(#radial-gradient-119);}.cls-127{fill:url(#radial-gradient-120);}.cls-128{fill:url(#radial-gradient-121);}.cls-129{fill:url(#radial-gradient-122);}.cls-130{fill:url(#radial-gradient-123);}.cls-131{fill:url(#radial-gradient-124);}.cls-132{fill:url(#radial-gradient-125);}.cls-133{fill:url(#radial-gradient-126);}.cls-134{fill:url(#radial-gradient-127);}.cls-135{fill:url(#radial-gradient-128);}.cls-136{fill:url(#radial-gradient-129);}.cls-137{fill:url(#radial-gradient-130);}.cls-138{fill:url(#radial-gradient-131);}.cls-139{fill:url(#radial-gradient-132);}.cls-140{fill:url(#radial-gradient-133);}.cls-141{fill:url(#radial-gradient-134);}.cls-142{fill:url(#radial-gradient-135);}.cls-143{fill:url(#radial-gradient-136);}.cls-144{fill:url(#radial-gradient-137);}.cls-145{fill:url(#radial-gradient-138);}</style><linearGradient id="linear-gradient" x1="51.85" y1="-45.32" x2="151.58" y2="268.39" gradientUnits="userSpaceOnUse"><stop offset="0" stop-color="#3d3d3d"/><stop offset="0.72"/></linearGradient><linearGradient id="linear-gradient-2" x1="106.98" y1="271.01" x2="92.46" y2="9.59" gradientUnits="userSpaceOnUse"><stop offset="0.08" stop-color="#1e1e1e"/><stop offset="0.25" stop-color="#1a1a1a"/><stop offset="0.65" stop-color="#161616"/></linearGradient><linearGradient id="linear-gradient-3" x1="135.79" y1="208.56" x2="58.19" y2="-4.66" gradientUnits="userSpaceOnUse"><stop offset="0.24" stop-color="#fff"/><stop offset="0.25" stop-color="#e6e6e6"/><stop offset="0.27" stop-color="#b6b6b6"/><stop offset="0.29" stop-color="#8a8a8a"/><stop offset="0.31" stop-color="#656565"/><stop offset="0.33" stop-color="#464646"/><stop offset="0.35" stop-color="#2c2c2c"/><stop offset="0.38" stop-color="#181818"/><stop offset="0.41" stop-color="#0b0b0b"/><stop offset="0.44" stop-color="#020202"/><stop offset="0.51"/><stop offset="0.62" stop-color="#141414"/><stop offset="0.78" stop-color="#2d2d2d"/><stop offset="0.88" stop-color="#363636"/></linearGradient><linearGradient id="linear-gradient-4" x1="102.66" y1="194.96" x2="90.11" y2="-31" gradientUnits="userSpaceOnUse"><stop offset="0.16" stop-color="#252525"/><stop offset="0.39" stop-color="#1e1e1e"/><stop offset="0.74" stop-color="#1a1a1a"/></linearGradient><radialGradient id="radial-gradient" cx="97.79" cy="103.99" r="79.96" gradientUnits="userSpaceOnUse"><stop offset="0.21" stop-color="#2f2f2f"/><stop offset="0.43" stop-color="#2a2a2a"/><stop offset="0.69" stop-color="#1b1b1c"/><stop offset="0.86" stop-color="#0e0e0f"/></radialGradient><radialGradient id="radial-gradient-2" cx="97.79" cy="103.78" r="3.91" gradientUnits="userSpaceOnUse"><stop offset="0" stop-color="#6a6a6a"/><stop offset="0.18" stop-color="#656565"/><stop offset="0.41" stop-color="#565656"/><stop offset="0.62" stop-color="#414141"/></radialGradient><radialGradient id="radial-gradient-3" cx="97.79" cy="92.75" r="3.91" xlink:href="#radial-gradient-2"/><radialGradient id="radial-gradient-4" cx="97.79" cy="115.25" r="3.91" xlink:href="#radial-gradient-2"/><radialGradient id="radial-gradient-5" cx="97.79" cy="82.93" r="3.91" xlink:href="#radial-gradient-2"/><radialGradient id="radial-gradient-6" cx="97.79" cy="125.73" r="3.91" xlink:href="#radial-gradient-2"/><radialGradient id="radial-gradient-7" cx="97.79" cy="72.42" r="3.91" xlink:href="#radial-gradient-2"/><radialGradient id="radial-gradient-8" cx="97.79" cy="136.25" r="3.91" xlink:href="#radial-gradient-2"/><radialGradient id="radial-gradient-9" cx="97.79" cy="61.55" r="3.91" xlink:href="#radial-gradient-2"/><radialGradient id="radial-gradient-10" cx="97.79" cy="146.67" r="3.91" xlink:href="#radial-gradient-2"/><radialGradient id="radial-gradient-11" cx="97.79" cy="51.58" r="3.91" xlink:href="#radial-gradient-2"/><radialGradient id="radial-gradient-12" cx="97.79" cy="156.63" r="3.91" xlink:href="#radial-gradient-2"/><radialGradient id="radial-gradient-13" cx="97.79" cy="41.51" r="3.91" xlink:href="#radial-gradient-2"/><radialGradient id="radial-gradient-14" cx="97.79" cy="166.49" r="3.91" xlink:href="#radial-gradient-2"/><radialGradient id="radial-gradient-15" cx="107.43" cy="16.63" r="3.9" gradientTransform="translate(-21.72 44.73) rotate(-10)" xlink:href="#radial-gradient-2"/><radialGradient id="radial-gradient-16" cx="107.39" cy="141.59" r="3.9" gradientTransform="translate(-21.72 44.73) rotate(-10)" xlink:href="#radial-gradient-2"/><radialGradient id="radial-gradient-17" cx="120.31" cy="-5.98" r="3.9" gradientTransform="matrix(0.94, -0.34, 0.34, 0.94, -34.6, 92.05)" xlink:href="#radial-gradient-2"/><radialGradient id="radial-gradient-18" cx="120.33" cy="118.99" r="3.9" gradientTransform="matrix(0.94, -0.34, 0.34, 0.94, -34.6, 92.05)" xlink:href="#radial-gradient-2"/><radialGradient id="radial-gradient-19" cx="137.2" cy="-25.55" r="3.89" gradientTransform="translate(-39.5 140.62) rotate(-30)" xlink:href="#radial-gradient-2"/><radialGradient id="radial-gradient-20" cx="137.21" cy="99.42" r="3.9" gradientTransform="translate(-39.5 140.62) rotate(-30)" xlink:href="#radial-gradient-2"/><radialGradient id="radial-gradient-21" cx="157.24" cy="-42.08" r="3.89" gradientTransform="matrix(0.77, -0.64, 0.64, 0.77, -35.77, 189.45)" xlink:href="#radial-gradient-2"/><radialGradient id="radial-gradient-22" cx="157.23" cy="82.87" r="3.9" gradientTransform="matrix(0.77, -0.64, 0.64, 0.77, -35.77, 189.45)" xlink:href="#radial-gradient-2"/><radialGradient id="radial-gradient-23" cx="180.68" cy="-55.74" r="3.89" gradientTransform="matrix(0.64, -0.77, 0.77, 0.64, -23.52, 238.05)" xlink:href="#radial-gradient-2"/><radialGradient id="radial-gradient-24" cx="180.66" cy="69.25" r="3.89" gradientTransform="matrix(0.64, -0.77, 0.77, 0.64, -23.52, 238.05)" xlink:href="#radial-gradient-2"/><radialGradient id="radial-gradient-25" cx="205.15" cy="-64.42" r="3.9" gradientTransform="translate(-3.12 282.63) rotate(-60)" xlink:href="#radial-gradient-2"/><radialGradient id="radial-gradient-26" cx="205.17" cy="60.56" r="3.89" gradientTransform="translate(-3.12 282.63) rotate(-60)" xlink:href="#radial-gradient-2"/><radialGradient id="radial-gradient-27" cx="230.59" cy="-68.73" r="3.91" gradientTransform="matrix(0.34, -0.94, 0.94, 0.34, 24.8, 322.82)" xlink:href="#radial-gradient-2"/><radialGradient id="radial-gradient-28" cx="230.58" cy="56.22" r="3.9" gradientTransform="matrix(0.34, -0.94, 0.94, 0.34, 24.8, 322.82)" xlink:href="#radial-gradient-2"/><radialGradient id="radial-gradient-29" cx="256.79" cy="-68.27" r="3.89" gradientTransform="translate(58.9 357.89) rotate(-80)" xlink:href="#radial-gradient-2"/><radialGradient id="radial-gradient-30" cx="256.79" cy="56.68" r="3.9" gradientTransform="translate(58.9 357.89) rotate(-80)" xlink:href="#radial-gradient-2"/><radialGradient id="radial-gradient-31" cx="282.87" cy="-64.07" r="3.9" gradientTransform="translate(99.39 386.87) rotate(-90)" xlink:href="#radial-gradient-2"/><radialGradient id="radial-gradient-32" cx="282.87" cy="60.87" r="3.89" gradientTransform="translate(99.39 386.87) rotate(-90)" xlink:href="#radial-gradient-2"/><radialGradient id="radial-gradient-33" cx="308.01" cy="-55.24" r="3.89" gradientTransform="translate(144.12 408.59) rotate(-100)" xlink:href="#radial-gradient-2"/><radialGradient id="radial-gradient-34" cx="308.01" cy="69.71" r="3.91" gradientTransform="translate(144.12 408.59) rotate(-100)" xlink:href="#radial-gradient-2"/><radialGradient id="radial-gradient-35" cx="330.36" cy="-41.9" r="3.9" gradientTransform="matrix(-0.34, -0.94, 0.94, -0.34, 191.44, 421.47)" xlink:href="#radial-gradient-2"/><radialGradient id="radial-gradient-36" cx="330.36" cy="83.05" r="3.9" gradientTransform="matrix(-0.34, -0.94, 0.94, -0.34, 191.44, 421.47)" xlink:href="#radial-gradient-2"/><radialGradient id="radial-gradient-37" cx="350.31" cy="-24.46" r="3.9" gradientTransform="translate(240.01 426.37) rotate(-120)" xlink:href="#radial-gradient-2"/><radialGradient id="radial-gradient-38" cx="350.29" cy="100.51" r="3.9" gradientTransform="translate(240.01 426.37) rotate(-120)" xlink:href="#radial-gradient-2"/><radialGradient id="radial-gradient-39" cx="366.9" cy="-4.01" r="3.89" gradientTransform="matrix(-0.64, -0.77, 0.77, -0.64, 288.84, 422.64)" xlink:href="#radial-gradient-2"/><radialGradient id="radial-gradient-40" cx="366.91" cy="120.98" r="3.89" gradientTransform="matrix(-0.64, -0.77, 0.77, -0.64, 288.84, 422.64)" xlink:href="#radial-gradient-2"/><radialGradient id="radial-gradient-41" cx="380.55" cy="18.18" r="3.89" gradientTransform="matrix(-0.77, -0.64, 0.64, -0.77, 337.44, 410.39)" xlink:href="#radial-gradient-2"/><radialGradient id="radial-gradient-42" cx="380.53" cy="143.13" r="3.89" gradientTransform="matrix(-0.77, -0.64, 0.64, -0.77, 337.44, 410.39)" xlink:href="#radial-gradient-2"/><radialGradient id="radial-gradient-43" cx="389.16" cy="43.07" r="3.89" gradientTransform="translate(382.02 389.99) rotate(-150)" xlink:href="#radial-gradient-2"/><radialGradient id="radial-gradient-44" cx="389.16" cy="168.05" r="3.89" gradientTransform="translate(382.02 389.99) rotate(-150)" xlink:href="#radial-gradient-2"/><radialGradient id="radial-gradient-45" cx="393.13" cy="69.08" r="3.9" gradientTransform="matrix(-0.94, -0.34, 0.34, -0.94, 422.21, 362.07)" xlink:href="#radial-gradient-2"/><radialGradient id="radial-gradient-46" cx="393.1" cy="194.05" r="3.9" gradientTransform="matrix(-0.94, -0.34, 0.34, -0.94, 422.21, 362.07)" xlink:href="#radial-gradient-2"/><radialGradient id="radial-gradient-47" cx="392.9" cy="95.69" r="3.9" gradientTransform="translate(457.27 327.97) rotate(-170)" xlink:href="#radial-gradient-2"/><radialGradient id="radial-gradient-48" cx="392.93" cy="220.64" r="3.9" gradientTransform="translate(457.27 327.97) rotate(-170)" xlink:href="#radial-gradient-2"/><radialGradient id="radial-gradient-49" cx="107.39" cy="26.7" r="3.91" gradientTransform="translate(-21.73 44.73) rotate(-10)" xlink:href="#radial-gradient-2"/><radialGradient id="radial-gradient-50" cx="107.4" cy="131.75" r="3.91" gradientTransform="translate(-21.73 44.73) rotate(-10)" xlink:href="#radial-gradient-2"/><radialGradient id="radial-gradient-51" cx="120.29" cy="4.08" r="3.89" gradientTransform="matrix(0.94, -0.34, 0.34, 0.94, -34.62, 92.05)" xlink:href="#radial-gradient-2"/><radialGradient id="radial-gradient-52" cx="120.31" cy="109.14" r="3.9" gradientTransform="matrix(0.94, -0.34, 0.34, 0.94, -34.62, 92.05)" xlink:href="#radial-gradient-2"/><radialGradient id="radial-gradient-53" cx="137.18" cy="-15.49" r="3.9" gradientTransform="translate(-39.52 140.62) rotate(-30)" xlink:href="#radial-gradient-2"/><radialGradient id="radial-gradient-54" cx="137.16" cy="89.56" r="3.9" gradientTransform="translate(-39.52 140.62) rotate(-30)" xlink:href="#radial-gradient-2"/><radialGradient id="radial-gradient-55" cx="157.18" cy="-32.03" r="3.91" gradientTransform="matrix(0.77, -0.64, 0.64, 0.77, -35.8, 189.46)" xlink:href="#radial-gradient-2"/><radialGradient id="radial-gradient-56" cx="157.21" cy="73.01" r="3.91" gradientTransform="matrix(0.77, -0.64, 0.64, 0.77, -35.8, 189.46)" xlink:href="#radial-gradient-2"/><radialGradient id="radial-gradient-57" cx="180.62" cy="-45.69" r="3.89" gradientTransform="matrix(0.64, -0.77, 0.77, 0.64, -23.55, 238.07)" xlink:href="#radial-gradient-2"/><radialGradient id="radial-gradient-58" cx="180.62" cy="59.37" r="3.9" gradientTransform="matrix(0.64, -0.77, 0.77, 0.64, -23.55, 238.07)" xlink:href="#radial-gradient-2"/><radialGradient id="radial-gradient-59" cx="205.11" cy="-54.37" r="3.9" gradientTransform="translate(-3.16 282.65) rotate(-60)" xlink:href="#radial-gradient-2"/><radialGradient id="radial-gradient-60" cx="205.11" cy="50.67" r="3.89" gradientTransform="translate(-3.16 282.65) rotate(-60)" xlink:href="#radial-gradient-2"/><radialGradient id="radial-gradient-61" cx="230.52" cy="-58.72" r="3.9" gradientTransform="matrix(0.34, -0.94, 0.94, 0.34, 24.76, 322.85)" xlink:href="#radial-gradient-2"/><radialGradient id="radial-gradient-62" cx="230.53" cy="46.34" r="3.9" gradientTransform="matrix(0.34, -0.94, 0.94, 0.34, 24.76, 322.85)" xlink:href="#radial-gradient-2"/><radialGradient id="radial-gradient-63" cx="256.72" cy="-58.25" r="3.91" gradientTransform="translate(58.86 357.92) rotate(-80)" xlink:href="#radial-gradient-2"/><radialGradient id="radial-gradient-64" cx="256.72" cy="46.79" r="3.91" gradientTransform="translate(58.86 357.92) rotate(-80)" xlink:href="#radial-gradient-2"/><radialGradient id="radial-gradient-65" cx="282.8" cy="-54.08" r="3.89" gradientTransform="translate(99.35 386.91) rotate(-90)" xlink:href="#radial-gradient-2"/><radialGradient id="radial-gradient-66" cx="282.8" cy="50.99" r="3.91" gradientTransform="translate(99.35 386.91) rotate(-90)" xlink:href="#radial-gradient-2"/><radialGradient id="radial-gradient-67" cx="307.94" cy="-45.24" r="3.91" gradientTransform="translate(144.08 408.63) rotate(-100)" xlink:href="#radial-gradient-2"/><radialGradient id="radial-gradient-68" cx="307.95" cy="59.8" r="3.91" gradientTransform="translate(144.08 408.63) rotate(-100)" xlink:href="#radial-gradient-2"/><radialGradient id="radial-gradient-69" cx="330.3" cy="-31.93" r="3.9" gradientTransform="matrix(-0.34, -0.94, 0.94, -0.34, 191.4, 421.52)" xlink:href="#radial-gradient-2"/><radialGradient id="radial-gradient-70" cx="330.28" cy="73.12" r="3.9" gradientTransform="matrix(-0.34, -0.94, 0.94, -0.34, 191.4, 421.52)" xlink:href="#radial-gradient-2"/><radialGradient id="radial-gradient-71" cx="350.23" cy="-14.49" r="3.9" gradientTransform="translate(239.97 426.43) rotate(-120)" xlink:href="#radial-gradient-2"/><radialGradient id="radial-gradient-72" cx="350.23" cy="90.56" r="3.9" gradientTransform="translate(239.97 426.43) rotate(-120)" xlink:href="#radial-gradient-2"/><radialGradient id="radial-gradient-73" cx="366.85" cy="5.95" r="3.9" gradientTransform="matrix(-0.64, -0.77, 0.77, -0.64, 288.81, 422.7)" xlink:href="#radial-gradient-2"/><radialGradient id="radial-gradient-74" cx="366.85" cy="111.01" r="3.9" gradientTransform="matrix(-0.64, -0.77, 0.77, -0.64, 288.81, 422.7)" xlink:href="#radial-gradient-2"/><radialGradient id="radial-gradient-75" cx="380.51" cy="28.12" r="3.91" gradientTransform="matrix(-0.77, -0.64, 0.64, -0.77, 337.41, 410.46)" xlink:href="#radial-gradient-2"/><radialGradient id="radial-gradient-76" cx="380.48" cy="133.16" r="3.91" gradientTransform="matrix(-0.77, -0.64, 0.64, -0.77, 337.41, 410.46)" xlink:href="#radial-gradient-2"/><radialGradient id="radial-gradient-77" cx="389.11" cy="53.02" r="3.89" gradientTransform="translate(382 390.07) rotate(-150)" xlink:href="#radial-gradient-2"/><radialGradient id="radial-gradient-78" cx="389.13" cy="158.05" r="3.89" gradientTransform="translate(382 390.07) rotate(-150)" xlink:href="#radial-gradient-2"/><radialGradient id="radial-gradient-79" cx="393.1" cy="79" r="3.9" gradientTransform="matrix(-0.94, -0.34, 0.34, -0.94, 422.19, 362.15)" xlink:href="#radial-gradient-2"/><radialGradient id="radial-gradient-80" cx="393.08" cy="184.06" r="3.89" gradientTransform="matrix(-0.94, -0.34, 0.34, -0.94, 422.19, 362.15)" xlink:href="#radial-gradient-2"/><radialGradient id="radial-gradient-81" cx="392.91" cy="105.61" r="3.9" gradientTransform="translate(457.27 328.04) rotate(-170)" xlink:href="#radial-gradient-2"/><radialGradient id="radial-gradient-82" cx="392.9" cy="210.66" r="3.91" gradientTransform="translate(457.27 328.04) rotate(-170)" xlink:href="#radial-gradient-2"/><radialGradient id="radial-gradient-83" cx="113.34" cy="25.42" r="3.89" gradientTransform="translate(-29.29 67.77) rotate(-15)" xlink:href="#radial-gradient-2"/><radialGradient id="radial-gradient-84" cx="113.35" cy="110.55" r="3.89" gradientTransform="translate(-29.29 67.77) rotate(-15)" xlink:href="#radial-gradient-2"/><radialGradient id="radial-gradient-85" cx="137.18" cy="-5.52" r="3.89" gradientTransform="translate(-39.52 140.62) rotate(-30)" xlink:href="#radial-gradient-2"/><radialGradient id="radial-gradient-86" cx="137.17" cy="79.59" r="3.89" gradientTransform="translate(-39.52 140.62) rotate(-30)" xlink:href="#radial-gradient-2"/><radialGradient id="radial-gradient-87" cx="168.5" cy="-29.53" r="3.9" gradientTransform="translate(-30.57 214.03) rotate(-45)" xlink:href="#radial-gradient-2"/><radialGradient id="radial-gradient-88" cx="168.49" cy="55.59" r="3.89" gradientTransform="translate(-30.57 214.03) rotate(-45)" xlink:href="#radial-gradient-2"/><radialGradient id="radial-gradient-89" cx="205.1" cy="-44.41" r="3.89" gradientTransform="translate(-3.16 282.65) rotate(-60)" xlink:href="#radial-gradient-2"/><radialGradient id="radial-gradient-90" cx="205.12" cy="40.71" r="3.9" gradientTransform="translate(-3.16 282.65) rotate(-60)" xlink:href="#radial-gradient-2"/><radialGradient id="radial-gradient-91" cx="243.99" cy="-49.1" r="3.91" gradientTransform="translate(40.96 341.47) rotate(-75)" xlink:href="#radial-gradient-2"/><radialGradient id="radial-gradient-92" cx="243.99" cy="36.03" r="3.91" gradientTransform="translate(40.96 341.47) rotate(-75)" xlink:href="#radial-gradient-2"/><radialGradient id="radial-gradient-93" cx="282.81" cy="-44.1" r="3.91" gradientTransform="translate(99.35 386.91) rotate(-90)" xlink:href="#radial-gradient-2"/><radialGradient id="radial-gradient-94" cx="282.81" cy="40.99" r="3.91" gradientTransform="translate(99.35 386.91) rotate(-90)" xlink:href="#radial-gradient-2"/><radialGradient id="radial-gradient-95" cx="319.42" cy="-28.76" r="3.91" gradientTransform="translate(167.12 416.2) rotate(-105)" xlink:href="#radial-gradient-2"/><radialGradient id="radial-gradient-96" cx="319.41" cy="56.37" r="3.91" gradientTransform="translate(167.12 416.2) rotate(-105)" xlink:href="#radial-gradient-2"/><radialGradient id="radial-gradient-97" cx="350.25" cy="-4.53" r="3.9" gradientTransform="translate(239.97 426.43) rotate(-120)" xlink:href="#radial-gradient-2"/><radialGradient id="radial-gradient-98" cx="350.23" cy="80.6" r="3.9" gradientTransform="translate(239.97 426.43) rotate(-120)" xlink:href="#radial-gradient-2"/><radialGradient id="radial-gradient-99" cx="374.03" cy="26.58" r="3.89" gradientTransform="translate(313.38 417.48) rotate(-135)" xlink:href="#radial-gradient-2"/><radialGradient id="radial-gradient-100" cx="374.04" cy="111.71" r="3.9" gradientTransform="translate(313.38 417.48) rotate(-135)" xlink:href="#radial-gradient-2"/><radialGradient id="radial-gradient-101" cx="389.14" cy="62.98" r="3.9" gradientTransform="translate(382 390.07) rotate(-150)" xlink:href="#radial-gradient-2"/><radialGradient id="radial-gradient-102" cx="389.13" cy="148.1" r="3.89" gradientTransform="translate(382 390.07) rotate(-150)" xlink:href="#radial-gradient-2"/><radialGradient id="radial-gradient-103" cx="393.95" cy="102.27" r="3.89" gradientTransform="translate(440.81 345.95) rotate(-165)" xlink:href="#radial-gradient-2"/><radialGradient id="radial-gradient-104" cx="393.93" cy="187.4" r="3.89" gradientTransform="translate(440.81 345.95) rotate(-165)" xlink:href="#radial-gradient-2"/><radialGradient id="radial-gradient-105" cx="120.25" cy="24.92" r="3.92" gradientTransform="matrix(0.94, -0.34, 0.34, 0.94, -34.65, 92.05)" xlink:href="#radial-gradient-2"/><radialGradient id="radial-gradient-106" cx="120.24" cy="88.77" r="3.91" gradientTransform="matrix(0.94, -0.34, 0.34, 0.94, -34.65, 92.05)" xlink:href="#radial-gradient-2"/><radialGradient id="radial-gradient-107" cx="157.1" cy="-11.24" r="3.9" gradientTransform="matrix(0.77, -0.64, 0.64, 0.77, -35.85, 189.48)" xlink:href="#radial-gradient-2"/><radialGradient id="radial-gradient-108" cx="157.09" cy="52.61" r="3.89" gradientTransform="matrix(0.77, -0.64, 0.64, 0.77, -35.85, 189.48)" xlink:href="#radial-gradient-2"/><radialGradient id="radial-gradient-109" cx="204.98" cy="-33.63" r="3.89" gradientTransform="translate(-3.23 282.69) rotate(-60)" xlink:href="#radial-gradient-2"/><radialGradient id="radial-gradient-110" cx="204.98" cy="30.2" r="3.9" gradientTransform="translate(-3.23 282.69) rotate(-60)" xlink:href="#radial-gradient-2"/><radialGradient id="radial-gradient-111" cx="256.59" cy="-37.55" r="3.9" gradientTransform="translate(58.78 357.99) rotate(-80)" xlink:href="#radial-gradient-2"/><radialGradient id="radial-gradient-112" cx="256.59" cy="26.31" r="3.91" gradientTransform="translate(58.78 357.99) rotate(-80)" xlink:href="#radial-gradient-2"/><radialGradient id="radial-gradient-113" cx="307.81" cy="-24.59" r="3.91" gradientTransform="translate(144 408.73) rotate(-100)" xlink:href="#radial-gradient-2"/><radialGradient id="radial-gradient-114" cx="307.81" cy="39.27" r="3.9" gradientTransform="translate(144 408.73) rotate(-100)" xlink:href="#radial-gradient-2"/><radialGradient id="radial-gradient-115" cx="350.12" cy="6.12" r="3.89" gradientTransform="translate(239.9 426.56) rotate(-120)" xlink:href="#radial-gradient-2"/><radialGradient id="radial-gradient-116" cx="350.12" cy="69.98" r="3.89" gradientTransform="translate(239.9 426.56) rotate(-120)" xlink:href="#radial-gradient-2"/><radialGradient id="radial-gradient-117" cx="380.41" cy="48.69" r="3.9" gradientTransform="matrix(-0.77, -0.64, 0.64, -0.77, 337.36, 410.61)" xlink:href="#radial-gradient-2"/><radialGradient id="radial-gradient-118" cx="380.42" cy="112.54" r="3.89" gradientTransform="matrix(-0.77, -0.64, 0.64, -0.77, 337.36, 410.61)" xlink:href="#radial-gradient-2"/><radialGradient id="radial-gradient-119" cx="393.02" cy="99.57" r="3.91" gradientTransform="matrix(-0.94, -0.34, 0.34, -0.94, 422.17, 362.31)" xlink:href="#radial-gradient-2"/><radialGradient id="radial-gradient-120" cx="393.05" cy="163.41" r="3.91" gradientTransform="matrix(-0.94, -0.34, 0.34, -0.94, 422.17, 362.31)" xlink:href="#radial-gradient-2"/><radialGradient id="radial-gradient-121" cx="128.37" cy="25.23" r="3.91" gradientTransform="translate(-38.23 116.31) rotate(-25)" xlink:href="#radial-gradient-2"/><radialGradient id="radial-gradient-122" cx="128.32" cy="68.01" r="3.9" gradientTransform="translate(-38.23 116.31) rotate(-25)" xlink:href="#radial-gradient-2"/><radialGradient id="radial-gradient-123" cx="180.52" cy="-14.4" r="3.91" gradientTransform="matrix(0.64, -0.77, 0.77, 0.64, -23.62, 238.1)" xlink:href="#radial-gradient-2"/><radialGradient id="radial-gradient-124" cx="180.51" cy="28.43" r="3.91" gradientTransform="matrix(0.64, -0.77, 0.77, 0.64, -23.62, 238.1)" xlink:href="#radial-gradient-2"/><radialGradient id="radial-gradient-125" cx="243.85" cy="-27.81" r="3.91" gradientTransform="translate(40.87 341.53) rotate(-75)" xlink:href="#radial-gradient-2"/><radialGradient id="radial-gradient-126" cx="243.85" cy="14.98" r="3.91" gradientTransform="translate(40.87 341.53) rotate(-75)" xlink:href="#radial-gradient-2"/><radialGradient id="radial-gradient-127" cx="307.8" cy="-14.04" r="3.91" gradientTransform="translate(143.99 408.73) rotate(-100)" xlink:href="#radial-gradient-2"/><radialGradient id="radial-gradient-128" cx="307.81" cy="28.72" r="3.91" gradientTransform="translate(143.99 408.73) rotate(-100)" xlink:href="#radial-gradient-2"/><radialGradient id="radial-gradient-129" cx="358.5" cy="25.59" r="3.9" gradientTransform="matrix(-0.57, -0.82, 0.82, -0.57, 264.93, 424.96)" xlink:href="#radial-gradient-2"/><radialGradient id="radial-gradient-130" cx="358.49" cy="68.38" r="3.9" gradientTransform="matrix(-0.57, -0.82, 0.82, -0.57, 264.93, 424.96)" xlink:href="#radial-gradient-2"/><radialGradient id="radial-gradient-131" cx="389.05" cy="84.11" r="3.9" gradientTransform="translate(381.95 390.23) rotate(-150)" xlink:href="#radial-gradient-2"/><radialGradient id="radial-gradient-132" cx="389.06" cy="126.91" r="3.9" gradientTransform="translate(381.95 390.23) rotate(-150)" xlink:href="#radial-gradient-2"/><radialGradient id="radial-gradient-133" cx="168.55" cy="1.7" r="3.9" gradientTransform="translate(-30.54 214.02) rotate(-45)" xlink:href="#radial-gradient-2"/><radialGradient id="radial-gradient-134" cx="168.53" cy="24.19" r="3.89" gradientTransform="translate(-30.54 214.02) rotate(-45)" xlink:href="#radial-gradient-2"/><radialGradient id="radial-gradient-135" cx="282.87" cy="-12.84" r="3.89" gradientTransform="translate(99.39 386.87) rotate(-90)" xlink:href="#radial-gradient-2"/><radialGradient id="radial-gradient-136" cx="282.87" cy="9.64" r="3.89" gradientTransform="translate(99.39 386.87) rotate(-90)" xlink:href="#radial-gradient-2"/><radialGradient id="radial-gradient-137" cx="374.08" cy="57.91" r="3.89" gradientTransform="translate(313.41 417.41) rotate(-135)" xlink:href="#radial-gradient-2"/><radialGradient id="radial-gradient-138" cx="374.09" cy="80.39" r="3.9" gradientTransform="translate(313.41 417.41) rotate(-135)" xlink:href="#radial-gradient-2"/></defs><title>indicatorOff</title><g class="cls-1"><g id="Layer_1" data-name="Layer 1"><path class="cls-2" d="M0,97.1a97.13,97.13,0,1,1,97.13,97.13A97.12,97.12,0,0,1,0,97.1Z"/><path class="cls-3" d="M8.19,99.54a89.27,89.27,0,1,1,89.27,89.25A89.26,89.26,0,0,1,8.19,99.54Z"/><path class="cls-4" d="M96.69,17.4a83.8,83.8,0,1,0,83.82,83.8A83.77,83.77,0,0,0,96.69,17.4Zm0,164a80.25,80.25,0,1,1,80.25-80.25A80.26,80.26,0,0,1,96.69,181.45Z"/><ellipse class="cls-5" cx="97.46" cy="101.36" rx="77.18" ry="77.15"/><path class="cls-6" d="M25.56,101.72c0-39.19,32.32-70.94,72.23-70.94S170,62.53,170,101.72s-32.32,71-72.23,71S25.56,140.93,25.56,101.72Z"/><path class="cls-7" d="M27.54,104c0-38.1,31.44-69,70.25-69S168,65.9,168,104s-31.44,69-70.25,69S27.54,142.09,27.54,104Z"/><g class="cls-8"><circle class="cls-9" cx="97.79" cy="103.78" r="3.41"/><path class="cls-10" d="M101.2,92.75a3.41,3.41,0,1,1-3.41-3.4A3.4,3.4,0,0,1,101.2,92.75Z"/><path class="cls-11" d="M101.2,115.24a3.41,3.41,0,1,1-3.41-3.39A3.41,3.41,0,0,1,101.2,115.24Z"/><ellipse class="cls-12" cx="97.79" cy="82.93" rx="3.41" ry="3.39"/><ellipse class="cls-13" cx="97.79" cy="125.73" rx="3.41" ry="3.39"/><path class="cls-14" d="M101.2,72.42A3.41,3.41,0,1,1,97.79,69,3.42,3.42,0,0,1,101.2,72.42Z"/><path class="cls-15" d="M101.2,136.26a3.41,3.41,0,1,1-3.41-3.4A3.4,3.4,0,0,1,101.2,136.26Z"/><path class="cls-16" d="M101.2,61.55a3.41,3.41,0,1,1-3.41-3.41A3.42,3.42,0,0,1,101.2,61.55Z"/><ellipse class="cls-17" cx="97.79" cy="146.67" rx="3.41" ry="3.39"/><path class="cls-18" d="M101.2,51.59a3.41,3.41,0,1,1-3.41-3.41A3.41,3.41,0,0,1,101.2,51.59Z"/><path class="cls-19" d="M101.2,156.63a3.41,3.41,0,1,1-3.41-3.4A3.41,3.41,0,0,1,101.2,156.63Z"/><ellipse class="cls-20" cx="97.79" cy="41.51" rx="3.41" ry="3.39"/><path class="cls-21" d="M101.2,166.47a3.41,3.41,0,1,1-3.41-3.38A3.41,3.41,0,0,1,101.2,166.47Z"/><path class="cls-22" d="M90.31,41.87a3.43,3.43,0,0,1-2.8,3.93,3.39,3.39,0,1,1,2.8-3.93Z"/><path class="cls-23" d="M112,164.93a3.35,3.35,0,0,1-2.75,3.93,3.39,3.39,0,1,1,2.75-3.93Z"/><path class="cls-24" d="M79.59,44.11a3.39,3.39,0,1,1-4.34-2A3.4,3.4,0,0,1,79.59,44.11Z"/><path class="cls-25" d="M122.36,161.55a3.4,3.4,0,1,1-4.34-2A3.39,3.39,0,0,1,122.36,161.55Z"/><path class="cls-26" d="M69.48,48.18a3.4,3.4,0,1,1-4.62-1.24A3.4,3.4,0,0,1,69.48,48.18Z"/><path class="cls-27" d="M132,156.41a3.42,3.42,0,0,1-1.27,4.63,3.38,3.38,0,1,1,1.27-4.63Z"/><path class="cls-28" d="M60.19,53.94a3.37,3.37,0,0,1-.38,4.8,3.39,3.39,0,1,1-4.35-5.21A3.33,3.33,0,0,1,60.19,53.94Z"/><path class="cls-29" d="M140.55,149.68a3.4,3.4,0,0,1-5.22,4.37,3.48,3.48,0,0,1,.44-4.8A3.4,3.4,0,0,1,140.55,149.68Z"/><path class="cls-30" d="M52.11,61.24A3.39,3.39,0,0,1,52.49,66a3.32,3.32,0,0,1-4.72.41,3.38,3.38,0,1,1,4.34-5.19Z"/><path class="cls-31" d="M147.81,141.56a3.39,3.39,0,1,1-4.34,5.21,3.39,3.39,0,0,1,4.34-5.21Z"/><path class="cls-32" d="M45.35,69.81a3.38,3.38,0,0,1,1.26,4.64,3.39,3.39,0,1,1-5.88-3.39A3.38,3.38,0,0,1,45.35,69.81Z"/><path class="cls-33" d="M153.58,132.3a3.38,3.38,0,1,1-4.62,1.25A3.37,3.37,0,0,1,153.58,132.3Z"/><path class="cls-34" d="M40.24,79.43a3.41,3.41,0,1,1-4.35,2A3.4,3.4,0,0,1,40.24,79.43Z"/><path class="cls-35" d="M157.65,122.18a3.39,3.39,0,0,1-2.31,6.38,3.39,3.39,0,1,1,2.31-6.38Z"/><path class="cls-36" d="M36.83,89.81a3.39,3.39,0,1,1-3.9,2.74A3.37,3.37,0,0,1,36.83,89.81Z"/><path class="cls-37" d="M159.9,111.51a3.38,3.38,0,0,1-1.15,6.67,3.46,3.46,0,0,1-2.81-3.93A3.4,3.4,0,0,1,159.9,111.51Z"/><path class="cls-38" d="M35.29,100.59a3.41,3.41,0,1,1,0,6.81,3.34,3.34,0,0,1-3.36-3.4A3.38,3.38,0,0,1,35.29,100.59Z"/><path class="cls-39" d="M160.29,100.59a3.41,3.41,0,0,1,0,6.81,3.41,3.41,0,1,1,0-6.81Z"/><path class="cls-40" d="M35.67,111.51a3.32,3.32,0,0,1,3.91,2.76,3.41,3.41,0,0,1-2.75,3.91,3.39,3.39,0,0,1-1.16-6.67Z"/><path class="cls-41" d="M158.75,89.81a3.39,3.39,0,0,1,1.15,6.69,3.39,3.39,0,1,1-1.15-6.69Z"/><path class="cls-42" d="M37.93,122.17a3.4,3.4,0,0,1,2.31,6.39,3.4,3.4,0,1,1-2.31-6.39Z"/><path class="cls-43" d="M155.34,79.43a3.4,3.4,0,1,1-2,4.36A3.39,3.39,0,0,1,155.34,79.43Z"/><path class="cls-44" d="M41.94,132.3a3.4,3.4,0,1,1-1.21,4.63A3.41,3.41,0,0,1,41.94,132.3Z"/><path class="cls-45" d="M150.23,69.81A3.39,3.39,0,1,1,149,74.45,3.36,3.36,0,0,1,150.23,69.81Z"/><path class="cls-46" d="M47.77,141.54a3.33,3.33,0,0,1,4.72.45,3.37,3.37,0,1,1-4.72-.45Z"/><path class="cls-47" d="M143.47,61.24a3.38,3.38,0,1,1,4.34,5.19,3.33,3.33,0,0,1-4.73-.41A3.39,3.39,0,0,1,143.47,61.24Z"/><path class="cls-48" d="M55,149.68a3.38,3.38,0,1,1,5.17,4.37,3.33,3.33,0,0,1-4.73.41A3.39,3.39,0,0,1,55,149.68Z"/><path class="cls-49" d="M135.39,54a3.31,3.31,0,0,1,4.72-.42,3.35,3.35,0,0,1,.44,4.79A3.38,3.38,0,1,1,135.39,54Z"/><path class="cls-50" d="M63.6,156.41A3.4,3.4,0,1,1,64.86,161,3.36,3.36,0,0,1,63.6,156.41Z"/><path class="cls-51" d="M126.1,48.18a3.4,3.4,0,1,1,1.26,4.65A3.38,3.38,0,0,1,126.1,48.18Z"/><path class="cls-52" d="M73.22,161.55a3.39,3.39,0,1,1,6.37,2.33,3.35,3.35,0,0,1-4.34,2A3.42,3.42,0,0,1,73.22,161.55Z"/><path class="cls-53" d="M116,44.13a3.39,3.39,0,1,1,2,4.34A3.37,3.37,0,0,1,116,44.13Z"/><path class="cls-54" d="M83.61,164.93a3.39,3.39,0,0,1,3.9-2.75,3.47,3.47,0,0,1,2.8,3.94,3.4,3.4,0,0,1-4,2.74A3.35,3.35,0,0,1,83.61,164.93Z"/><path class="cls-55" d="M105.26,41.87A3.41,3.41,0,1,1,108,45.8,3.46,3.46,0,0,1,105.26,41.87Z"/><path class="cls-56" d="M92,51.8a3.4,3.4,0,1,1-4-2.77A3.4,3.4,0,0,1,92,51.8Z"/><path class="cls-57" d="M110.26,155.25a3.4,3.4,0,1,1-4-2.77A3.4,3.4,0,0,1,110.26,155.25Z"/><path class="cls-58" d="M83,53.59a3.39,3.39,0,1,1-6.38,2.31,3.43,3.43,0,0,1,2-4.34A3.37,3.37,0,0,1,83,53.59Z"/><path class="cls-59" d="M119,152.31a3.44,3.44,0,0,1-2,4.35,3.4,3.4,0,1,1,2-4.35Z"/><path class="cls-60" d="M74.48,56.93a3.4,3.4,0,0,1-5.88,3.4,3.4,3.4,0,1,1,5.88-3.4Z"/><path class="cls-61" d="M127,147.89a3.4,3.4,0,1,1-4.62-1.23A3.4,3.4,0,0,1,127,147.89Z"/><path class="cls-62" d="M66.62,61.7a3.38,3.38,0,0,1-.38,4.77,3.47,3.47,0,0,1-4.84-.41,3.4,3.4,0,1,1,5.22-4.36Z"/><path class="cls-63" d="M134.18,142.16a3.41,3.41,0,1,1-4.84-.41A3.44,3.44,0,0,1,134.18,142.16Z"/><path class="cls-64" d="M59.75,67.75a3.4,3.4,0,1,1-4.78.41A3.38,3.38,0,0,1,59.75,67.75Z"/><path class="cls-65" d="M140.22,135.26a3.41,3.41,0,1,1-4.78.43A3.41,3.41,0,0,1,140.22,135.26Z"/><path class="cls-66" d="M54,74.91a3.4,3.4,0,1,1-4.67,1.25A3.39,3.39,0,0,1,54,74.91Z"/><path class="cls-67" d="M145,127.42a3.38,3.38,0,1,1-4.62,1.26A3.39,3.39,0,0,1,145,127.42Z"/><path class="cls-68" d="M49.58,83a3.33,3.33,0,0,1,2,4.33,3.39,3.39,0,1,1-2-4.33Z"/><path class="cls-69" d="M148.3,118.87a3.4,3.4,0,1,1-4.34,2A3.41,3.41,0,0,1,148.3,118.87Z"/><path class="cls-70" d="M46.67,91.63a3.41,3.41,0,1,1-4,2.76A3.42,3.42,0,0,1,46.67,91.63Z"/><path class="cls-71" d="M150.12,109.88a3.4,3.4,0,1,1-4,2.75A3.43,3.43,0,0,1,150.12,109.88Z"/><path class="cls-72" d="M45.24,100.7a3.41,3.41,0,1,1-3.35,3.41A3.39,3.39,0,0,1,45.24,100.7Z"/><path class="cls-73" d="M150.34,100.7a3.41,3.41,0,1,1-3.41,3.41A3.43,3.43,0,0,1,150.34,100.7Z"/><path class="cls-74" d="M45.46,109.88a3.4,3.4,0,1,1-2.75,3.93A3.4,3.4,0,0,1,45.46,109.88Z"/><path class="cls-75" d="M148.91,91.63a3.41,3.41,0,1,1-2.75,4A3.43,3.43,0,0,1,148.91,91.63Z"/><path class="cls-76" d="M47.27,118.87a3.42,3.42,0,0,1,4.35,2,3.4,3.4,0,0,1-6.38,2.33A3.4,3.4,0,0,1,47.27,118.87Z"/><path class="cls-77" d="M146,83a3.39,3.39,0,1,1-2,4.33A3.38,3.38,0,0,1,146,83Z"/><path class="cls-78" d="M50.62,127.42A3.4,3.4,0,0,1,54,133.3a3.4,3.4,0,1,1-3.41-5.88Z"/><path class="cls-79" d="M141.6,74.91a3.38,3.38,0,0,1,4.62,1.22,3.4,3.4,0,0,1-5.89,3.41A3.38,3.38,0,0,1,141.6,74.91Z"/><path class="cls-80" d="M55.35,135.26a3.41,3.41,0,1,1-.38,4.8A3.4,3.4,0,0,1,55.35,135.26Z"/><path class="cls-81" d="M135.82,67.75a3.4,3.4,0,1,1-.38,4.77A3.34,3.34,0,0,1,135.82,67.75Z"/><path class="cls-82" d="M61.4,142.16a3.44,3.44,0,0,1,4.84-.41,3.4,3.4,0,1,1-4.84.41Z"/><path class="cls-83" d="M129,61.7a3.4,3.4,0,1,1,5.23,4.36,3.48,3.48,0,0,1-4.84.41A3.38,3.38,0,0,1,129,61.7Z"/><path class="cls-84" d="M68.6,147.89a3.39,3.39,0,1,1,1.26,4.65A3.38,3.38,0,0,1,68.6,147.89Z"/><path class="cls-85" d="M121.09,56.93a3.4,3.4,0,1,1,1.27,4.63A3.37,3.37,0,0,1,121.09,56.93Z"/><path class="cls-86" d="M76.62,152.31a3.39,3.39,0,1,1,2,4.35A3.45,3.45,0,0,1,76.62,152.31Z"/><path class="cls-87" d="M112.57,53.59a3.39,3.39,0,1,1,2,4.35A3.39,3.39,0,0,1,112.57,53.59Z"/><path class="cls-88" d="M85.31,155.23a3.41,3.41,0,1,1,2.8,4A3.4,3.4,0,0,1,85.31,155.23Z"/><path class="cls-89" d="M103.56,51.8a3.4,3.4,0,1,1,2.75,3.92A3.42,3.42,0,0,1,103.56,51.8Z"/><path class="cls-90" d="M90,62.12a3.39,3.39,0,0,1-6.54,1.76A3.39,3.39,0,1,1,90,62.12Z"/><path class="cls-91" d="M112.08,144.34a3.39,3.39,0,1,1-4.18-2.4A3.4,3.4,0,0,1,112.08,144.34Z"/><path class="cls-92" d="M79.43,65.55a3.37,3.37,0,1,1-5.83,3.39,3.31,3.31,0,0,1,1.21-4.63A3.37,3.37,0,0,1,79.43,65.55Z"/><path class="cls-93" d="M122,139.26a3.33,3.33,0,0,1-1.21,4.65,3.4,3.4,0,0,1-3.4-5.88A3.34,3.34,0,0,1,122,139.26Z"/><path class="cls-94" d="M70.08,71.6a3.43,3.43,0,0,1,0,4.82,3.37,3.37,0,0,1-4.78,0,3.42,3.42,0,0,1,0-4.81A3.38,3.38,0,0,1,70.08,71.6Z"/><path class="cls-95" d="M130.27,131.8a3.39,3.39,0,0,1-4.78,4.8,3.4,3.4,0,0,1,0-4.8A3.36,3.36,0,0,1,130.27,131.8Z"/><path class="cls-96" d="M62.61,79.88A3.39,3.39,0,1,1,58,81.14,3.38,3.38,0,0,1,62.61,79.88Z"/><path class="cls-97" d="M136.38,122.44a3.42,3.42,0,0,1,1.2,4.65,3.4,3.4,0,0,1-5.88-3.4A3.44,3.44,0,0,1,136.38,122.44Z"/><path class="cls-98" d="M57.55,89.82a3.39,3.39,0,1,1-1.76,6.54,3.39,3.39,0,1,1,1.76-6.54Z"/><path class="cls-99" d="M139.78,111.83A3.47,3.47,0,0,1,142.2,116,3.42,3.42,0,0,1,138,118.4a3.4,3.4,0,1,1,1.75-6.57Z"/><path class="cls-100" d="M55.24,100.7a3.4,3.4,0,1,1-3.4,3.41A3.42,3.42,0,0,1,55.24,100.7Z"/><path class="cls-101" d="M140.33,100.7a3.4,3.4,0,1,1-3.41,3.41A3.42,3.42,0,0,1,140.33,100.7Z"/><path class="cls-102" d="M55.79,111.83A3.43,3.43,0,0,1,60,114.25a3.39,3.39,0,0,1-2.42,4.15,3.4,3.4,0,1,1-1.76-6.57Z"/><path class="cls-103" d="M138,89.82A3.39,3.39,0,1,1,135.6,94,3.4,3.4,0,0,1,138,89.82Z"/><path class="cls-104" d="M59.2,122.44a3.43,3.43,0,0,1,4.67,1.25,3.4,3.4,0,0,1-5.88,3.4A3.43,3.43,0,0,1,59.2,122.44Z"/><path class="cls-105" d="M133,79.88a3.39,3.39,0,0,1,4.61,1.24,3.4,3.4,0,1,1-5.88,3.4A3.39,3.39,0,0,1,133,79.88Z"/><path class="cls-106" d="M65.3,131.8a3.36,3.36,0,0,1,4.78,0,3.39,3.39,0,1,1-4.78,0Z"/><path class="cls-107" d="M125.49,71.6a3.38,3.38,0,0,1,4.78,0,3.42,3.42,0,0,1,0,4.81,3.37,3.37,0,0,1-4.78,0A3.42,3.42,0,0,1,125.49,71.6Z"/><path class="cls-108" d="M73.55,139.26A3.42,3.42,0,0,1,78.22,138a3.4,3.4,0,0,1-3.41,5.88A3.39,3.39,0,0,1,73.55,139.26Z"/><path class="cls-109" d="M116.15,65.55a3.37,3.37,0,1,1,1.21,4.65A3.35,3.35,0,0,1,116.15,65.55Z"/><path class="cls-110" d="M83.5,144.34A3.38,3.38,0,1,1,90,146.08a3.38,3.38,0,1,1-6.54-1.74Z"/><path class="cls-111" d="M105.54,62.12a3.39,3.39,0,1,1,2.36,4.14A3.38,3.38,0,0,1,105.54,62.12Z"/><path class="cls-112" d="M90.09,73.18a3.47,3.47,0,0,1-2,4.35,3.4,3.4,0,1,1,2-4.35Z"/><path class="cls-113" d="M111.91,133.16a3.42,3.42,0,1,1-4.34-2A3.39,3.39,0,0,1,111.91,133.16Z"/><path class="cls-114" d="M79.87,77.7a3.4,3.4,0,0,1-5.22,4.37,3.45,3.45,0,0,1,.43-4.78A3.4,3.4,0,0,1,79.87,77.7Z"/><path class="cls-115" d="M120.87,126.61a3.34,3.34,0,0,1-.38,4.78,3.39,3.39,0,1,1-4.34-5.21A3.32,3.32,0,0,1,120.87,126.61Z"/><path class="cls-116" d="M71.84,85.42a3.41,3.41,0,1,1-4.62,1.25A3.37,3.37,0,0,1,71.84,85.42Z"/><path class="cls-117" d="M127.14,117.36a3.31,3.31,0,0,1,1.21,4.63,3.36,3.36,0,0,1-4.62,1.25,3.4,3.4,0,1,1,3.41-5.88Z"/><path class="cls-118" d="M67,95.45a3.39,3.39,0,1,1-4,2.75A3.41,3.41,0,0,1,67,95.45Z"/><path class="cls-119" d="M129.84,106.53a3.4,3.4,0,1,1-4,2.76A3.41,3.41,0,0,1,129.84,106.53Z"/><path class="cls-120" d="M65.74,106.53A3.4,3.4,0,1,1,63,110.47,3.42,3.42,0,0,1,65.74,106.53Z"/><path class="cls-121" d="M128.63,95.45a3.39,3.39,0,1,1-2.75,3.93A3.41,3.41,0,0,1,128.63,95.45Z"/><path class="cls-122" d="M68.43,117.36A3.4,3.4,0,1,1,67.22,122,3.35,3.35,0,0,1,68.43,117.36Z"/><path class="cls-123" d="M123.73,85.42a3.39,3.39,0,0,1,4.62,1.25,3.33,3.33,0,0,1-1.21,4.65,3.41,3.41,0,0,1-3.41-5.9Z"/><path class="cls-124" d="M74.65,126.61a3.4,3.4,0,1,1,.43,4.78A3.39,3.39,0,0,1,74.65,126.61Z"/><path class="cls-125" d="M115.71,77.7a3.39,3.39,0,0,1,4.78-.41,3.38,3.38,0,0,1-4.34,5.19A3.4,3.4,0,0,1,115.71,77.7Z"/><path class="cls-126" d="M83.72,133.16a3.36,3.36,0,0,1,4.34-2,3.41,3.41,0,1,1-2.37,6.4A3.37,3.37,0,0,1,83.72,133.16Z"/><path class="cls-127" d="M105.48,73.18a3.47,3.47,0,0,1,4.4-2,3.44,3.44,0,0,1,2,4.36,3.39,3.39,0,0,1-4.34,2A3.46,3.46,0,0,1,105.48,73.18Z"/><path class="cls-128" d="M91.85,83.5A3.47,3.47,0,0,1,90.2,88a3.4,3.4,0,0,1-2.91-6.14A3.45,3.45,0,0,1,91.85,83.5Z"/><path class="cls-129" d="M109.88,122.29a3.36,3.36,0,0,1-1.65,4.51,3.4,3.4,0,1,1,1.65-4.51Z"/><path class="cls-130" d="M83.61,88a3.4,3.4,0,1,1-4.84.41A3.47,3.47,0,0,1,83.61,88Z"/><path class="cls-131" d="M116.37,115.49a3.4,3.4,0,1,1-4.4,5.19,3.4,3.4,0,0,1,4.4-5.19Z"/><path class="cls-132" d="M78,95.51a3.4,3.4,0,1,1-4.18,2.4A3.45,3.45,0,0,1,78,95.51Z"/><path class="cls-133" d="M119.34,106.6a3.39,3.39,0,1,1-4.18,2.39A3.42,3.42,0,0,1,119.34,106.6Z"/><path class="cls-134" d="M76.13,104.7a3.4,3.4,0,1,1-2.75,4A3.38,3.38,0,0,1,76.13,104.7Z"/><path class="cls-135" d="M118.23,97.27a3.4,3.4,0,1,1-2.74,3.94A3.39,3.39,0,0,1,118.23,97.27Z"/><path class="cls-136" d="M78.33,113.83a3.39,3.39,0,0,1,4.72.82,3.41,3.41,0,1,1-4.72-.82Z"/><path class="cls-137" d="M113.4,89.28a3.39,3.39,0,0,1,4.72.84,3.41,3.41,0,0,1-5.6,3.89A3.38,3.38,0,0,1,113.4,89.28Z"/><path class="cls-138" d="M84.16,121.16a3.4,3.4,0,0,1,5.88,3.4,3.4,3.4,0,1,1-5.88-3.4Z"/><path class="cls-139" d="M105.54,84.1a3.4,3.4,0,1,1,1.26,4.65A3.41,3.41,0,0,1,105.54,84.1Z"/><path class="cls-140" d="M92.24,93.64a3.39,3.39,0,1,1-4.79,0A3.42,3.42,0,0,1,92.24,93.64Z"/><ellipse class="cls-141" cx="105.73" cy="111.95" rx="3.38" ry="3.39"/><path class="cls-142" d="M86.57,100.59a3.41,3.41,0,1,1-3.4,3.41A3.41,3.41,0,0,1,86.57,100.59Z"/><path class="cls-143" d="M109.06,100.59a3.41,3.41,0,1,1-3.41,3.41A3.37,3.37,0,0,1,109.06,100.59Z"/><ellipse class="cls-144" cx="89.84" cy="111.95" rx="3.38" ry="3.39"/><path class="cls-145" d="M103.34,93.64a3.38,3.38,0,0,1,4.78,0,3.42,3.42,0,0,1,0,4.81,3.38,3.38,0,0,1-4.78,0A3.42,3.42,0,0,1,103.34,93.64Z"/></g></g></g></svg>