<svg id="Layer_1" data-name="Layer 1" xmlns="http://www.w3.org/2000/svg" viewBox="0 0 639.59 1000"><title>pin_left</title><path d="M517.59,642.54a492.21,492.21,0,0,1-88,43.85l210,313.61Z" transform="translate(0 0)"/><path d="M571,570.05h0c37-37,77.23-95.45,58.73-163.78-10.22-37.71-35.12-62.08-74-72.45-20.67-5.51-44.71-6.68-70.54-4.2l55.34,79.94a12,12,0,0,1,.9,12.1C524.55,456,504,485.43,480.2,509.18h0c-107.69,107.67-244.73,69-250.51,67.27a11.93,11.93,0,0,1-7.82-7.28l-29-77.17c-24.77,33.71-45.7,79-30.28,125.62,11.63,35.15,38.45,57.94,79.71,67.74C335.78,707.54,486.29,654.74,571,570.05Z" transform="translate(0 0)"/><path d="M242,554.85c25.82,5.66,135.44,23.18,221.23-62.59h0c20.45-20.46,38.44-45.63,53.53-74.92L367.76,202c-4.76,5.67-9.84,11.29-15.37,16.83l0,0c-50.26,50.24-127.13,88.66-197.62,103.36Z" transform="translate(0 0)"/><path d="M335.44,202l0,0c31.7-31.69,65.34-81.51,45.7-138.92C370.4,31.6,347.62,11.65,313.43,3.73,240.81-13.12,129,28.62,58.85,98.75,28.09,129.51-19.36,191.47,8.38,260.94c8.5,21.28,27.28,35.05,55.8,40.91C141.21,317.69,265.43,272,335.44,202Z" transform="translate(0 0)"/></svg>