<svg id="Layer_1" data-name="Layer 1" xmlns="http://www.w3.org/2000/svg" viewBox="0 0 443.22 1000"><title>pin_middle</title><path d="M268.75,721.59a270.39,270.39,0,0,1-39.68,2.93h0a287.46,287.46,0,0,1-51.38-4.81L212.33,1000Z"/><path d="M359.89,658.92c68.36-45.83,97.15-114.67,77-184.16a152,152,0,0,0-32.47-59.27c1.66,19,1.35,34.6-2,44.15-37,105.1-121.37,120.81-168.37,120.81h0c-62.44,0-128.27-27-163.8-67.11-17.76-20.06-25.82-41.51-23.32-62,1.32-10.86,3.42-25.66,5.95-42.49-25.57,19.71-49.19,53-52.68,109-2.22,35.51,12.34,71,42.1,102.68C87.2,668.33,158.75,698,229.05,698h0C276.49,698,321.72,684.5,359.89,658.92Z"/><path d="M73.24,454.54c-2,16.12,8.08,31.32,16.86,41.24C120.43,530,179.63,554,234.07,554h0c40,0,111.8-13.4,143.38-103.12,7.43-21.1-8.62-100.09-27.26-173.06-34.24,21-76.42,31.72-117.53,31.72-45.65,0-92.92-13.42-130.25-41.49C93.55,321,78,415.25,73.24,454.54Z"/><path d="M232.67,283c76.88,0,158-41.86,164.26-121.87,3.27-41.74-8.14-77-33.91-104.89C330.46,21,275.42,0,215.8,0,139.39,0,57.15,35.88,57.15,114.66,57.15,231,145.3,283,232.67,283Z"/></svg>