<svg id="Layer_1" data-name="Layer 1" xmlns="http://www.w3.org/2000/svg" viewBox="0 0 392.95 1000"><defs><style>.cls-1{fill:#ea0607;}.cls-2{fill:#ff555e;}.cls-3{fill:#fff;opacity:0.57;}.cls-4{opacity:0.18;}</style></defs><title>switch_on</title><rect id="stroke" width="392.95" height="1000"/><rect id="fill" class="cls-1" x="5.42" y="5.66" width="382.11" height="990.37" rx="4.73"/><path id="shadeTopSmall" class="cls-2" d="M382.8,5.66H10.15a4.73,4.73,0,0,0-4.73,4.73v6.1a4.73,4.73,0,0,1,4.73-4.73H382.8a4.73,4.73,0,0,1,4.73,4.73v-6.1A4.73,4.73,0,0,0,382.8,5.66Z"/><rect id="shadeTop" class="cls-2" x="10.54" y="464.67" width="371.86" height="400.3"/><rect id="one" class="cls-3" x="182.56" y="156.78" width="27.82" height="137.36"/><path id="zero" class="cls-3" d="M196.47,597.57c-45.17,0-81.78,30.11-81.78,67.25s36.61,67.25,81.78,67.25,81.79-30.11,81.79-67.25S241.64,597.57,196.47,597.57Zm0,110.59c-29.11,0-52.7-19.41-52.7-43.34s23.59-43.34,52.7-43.34,52.71,19.41,52.71,43.34S225.58,708.16,196.47,708.16Z"/><path id="shadeBottom" class="cls-4" d="M10.54,865V984.05a6.15,6.15,0,0,0,6.15,6.15H376.25a6.15,6.15,0,0,0,6.15-6.15V865Z"/></svg>