<svg id="Layer_1" data-name="Layer 1" xmlns="http://www.w3.org/2000/svg" viewBox="0 0 392.95 1000"><defs><style>.cls-1{fill:#ea0607;}.cls-2{fill:#ff555e;}.cls-3{opacity:0.18;}.cls-4{fill:#fff;opacity:0.57;}</style></defs><title>switch_off</title><rect id="stroke" width="392.95" height="1000"/><rect id="fill" class="cls-1" x="5.42" y="5.66" width="382.11" height="990.37" rx="4.73"/><path id="shadeTop" class="cls-2" d="M374.36,10.33H18.58a8,8,0,0,0-8,8V180.13H382.4V18.37A8,8,0,0,0,374.36,10.33Z"/><rect id="shadeBottom" class="cls-3" x="10.54" y="180.13" width="371.86" height="319.23"/><rect id="one" class="cls-4" x="182.56" y="294.14" width="27.82" height="117.03"/><path id="zero" class="cls-4" d="M196.34,672.28A81.65,81.65,0,1,0,278,753.93,81.65,81.65,0,0,0,196.34,672.28Zm0,134.27A52.62,52.62,0,1,1,249,753.93,52.62,52.62,0,0,1,196.34,806.55Z"/></svg>