<?xml version="1.0" encoding="utf-8"?>
<!-- Generator: Adobe Illustrator 24.0.1, SVG Export Plug-In . SVG Version: 6.00 Build 0)  -->
<svg version="1.1" id="Layer_1" xmlns="http://www.w3.org/2000/svg" xmlns:xlink="http://www.w3.org/1999/xlink" x="0px" y="0px"
	 viewBox="0 0 503.5 503.5" style="enable-background:new 0 0 503.5 503.5;" xml:space="preserve">
<style type="text/css">
	.st0{fill:#ABACA6;}
</style>
<g>
	<g>
		<path class="st0" d="M382.6,133.6h-61.9c-2.1,0-4.2-0.4-4.2,1.7v61.9c0,2.1,2,3.3,4.2,3.3h15.5v49.8l-70.8,69.4V114h27.9
			c0,0,0.1,0,0.1,0c2.2,0,3.9-2.7,3.9-4.9c0-0.8-0.2-2-0.6-2.6l-42-103.9C254,1.1,252.6,0,251,0c-1.6,0-3,0.9-3.6,2.4l-42.2,104.3
			c-0.5,1.2-0.3,3.6,0.4,4.6c0.7,1.1,1.9,2.7,3.2,2.7h25.1v279.3L167,323.6v-71.9c11.8-5.9,18.9-17.8,18.9-31.2
			c0-19.2-15.9-34.8-35.1-34.8c-19.2,0-34.7,15.6-34.7,34.8c0,13.4,7.6,25.3,19.4,31.2V330c0,1-0.1,2,0.1,3.1
			c0.1,0.4,0.1,0.8,0.2,1.1l0.1,0.4c0.1,0.4,0.2,0.9,0.4,1.3c0.2,0.5,0.4,0.9,0.6,1.3l0.2,0.4c0.2,0.3,0.3,0.7,0.5,1
			c0.6,0.9,1.2,1.7,1.9,2.4l85.9,85.9c-10.6,8-17,20.6-17,34c0,23.5,19.1,42.7,42.7,42.7c23.5,0,42-19.1,42-42.7
			c0-17.8-12.1-33.4-27.8-39.8v-57.6l96.5-95.8c0.7-0.7,1.7-1.5,2.3-2.4c0.2-0.3,0.6-0.6,0.7-1l0.3-0.4c0.2-0.4,0.5-0.9,0.7-1.3
			c0.2-0.4,0.3-0.9,0.4-1.3l0.1-0.4c0.1-0.4,0.5-0.7,0.6-1.2c0.2-1,0.6-2,0.6-3v-56.2h14.9c2.1,0,4.8-1.1,4.8-3.3v-61.9
			C387.4,133.2,384.8,133.6,382.6,133.6z"/>
	</g>
</g>
</svg>
