<svg id="Layer_1" data-name="Layer 1" xmlns="http://www.w3.org/2000/svg" viewBox="0 0 141.24 512"><defs><style>.cls-1{fill:#d4deed;}.cls-2{fill:#c4cfe3;}.cls-3{fill:#e1eaf6;}</style></defs><title>usb_c</title><path id="usbTop" class="cls-1" d="M229.52,0h53a8.83,8.83,0,0,1,8.83,8.83v149H220.69V8.83A8.83,8.83,0,0,1,229.52,0Z" transform="translate(-185.38 0)"/><path id="usbBottom" class="cls-2" d="M203,384H309V485.52A26.49,26.49,0,0,1,282.48,512h-53A26.49,26.49,0,0,1,203,485.52Z" transform="translate(-185.38 0)"/><path id="usbMiddle" class="cls-3" d="M194.21,141.24H317.79a8.83,8.83,0,0,1,8.83,8.83V388.41a8.83,8.83,0,0,1-8.83,8.83H194.21a8.83,8.83,0,0,1-8.83-8.83V150.07A8.83,8.83,0,0,1,194.21,141.24Z" transform="translate(-185.38 0)"/></svg>